<svg width="40" height="30" viewBox="0 0 40 30" fill="none" xmlns="http://www.w3.org/2000/svg">
<g clip-path="url(#clip0_2_627)">
<path d="M26.0368 4.05958L27.995 5.20988H31.8998V18.2388C31.8998 24.0892 26.5387 28.8497 19.9468 28.8497C13.3549 28.8497 7.99387 24.0892 7.99387 18.2388V5.20988H11.9184L13.87 4.05958H6.86505V18.2388C6.86505 24.723 12.7329 30 19.9468 30C27.1607 30 33.0286 24.723 33.0286 18.2388V4.05958H26.0368Z" fill="url(#paint0_linear_2_627)"/>
<path d="M29.2998 5.97619L29.9531 6.36018H30.7726V18.2388C30.7726 23.4554 25.915 27.7011 19.9468 27.7011C13.9786 27.7011 9.12102 23.4554 9.12102 18.2388V6.36018H9.96681L10.6184 5.97619H8.74585V18.2388C8.74585 23.6666 13.7696 28.0834 19.9468 28.0834C26.124 28.0834 31.1477 23.6666 31.1477 18.2388V5.97619H29.2998Z" fill="url(#paint1_linear_2_627)"/>
<path d="M37.5866 13.4867L37.6064 11.4326C38.7911 11.2867 39.7998 10.237 39.892 9.01794C38.8783 9.07831 37.9684 9.8094 37.613 10.7618L37.6261 9.35666C38.3074 8.3992 38.2728 6.97893 37.5109 6.07345C36.7326 6.96384 36.6701 8.3841 37.3332 9.35498L37.3201 10.7602C36.9827 9.79934 36.0876 9.0498 35.0739 8.97099C35.1431 10.1917 36.132 11.2615 37.3135 11.4309L37.2937 13.485C36.9564 12.5242 36.0612 11.7746 35.0476 11.6958C35.1167 12.9165 36.1057 13.9864 37.2871 14.1557L37.2674 16.2098C36.9301 15.249 36.0349 14.5011 35.0213 14.4207C35.0904 15.6414 36.0793 16.7112 37.2608 16.8806L37.2411 18.9347C36.9037 17.9738 36.0086 17.226 34.995 17.1455C35.0641 18.3662 36.053 19.436 37.2345 19.6054L37.2147 21.6595C36.8774 20.6987 35.9823 19.9508 34.9686 19.8703C35.0377 21.091 36.0267 22.1609 37.2082 22.3302L37.1884 24.4983L37.4797 24.5017L37.5011 22.3302C38.6858 22.1843 39.6945 21.1346 39.7867 19.9156C38.773 19.976 37.8631 20.7071 37.506 21.6595L37.5257 19.6054C38.7105 19.4595 39.7192 18.4098 39.8113 17.1908C38.7977 17.2511 37.8878 17.9822 37.5307 18.9347L37.5504 16.8806C38.7352 16.7347 39.7439 15.685 39.836 14.4659C38.8224 14.5263 37.9124 15.2574 37.5554 16.2098L37.5751 14.1557C38.7599 14.0098 39.7686 12.9601 39.8607 11.7411C38.8537 11.8015 37.9437 12.5326 37.5866 13.4867Z" fill="url(#paint2_linear_2_627)"/>
<path d="M2.61635 13.4867L2.6361 11.4326C3.82086 11.2867 4.82956 10.237 4.9217 9.01794C3.90807 9.07831 2.99811 9.8094 2.64268 10.7618L2.65584 9.35666C3.33708 8.3992 3.30253 6.97893 2.54066 6.07345C1.76234 6.96384 1.69981 8.38411 2.36294 9.35498L2.34978 10.7602C2.01245 9.79934 1.1173 9.0498 0.103667 8.97099C0.172778 10.1917 1.16173 11.2615 2.3432 11.4309L2.32345 13.485C1.98612 12.5242 1.09097 11.7746 0.0773387 11.6958C0.148095 12.9149 1.13704 13.9847 2.31852 14.154L2.29877 16.2082C1.96144 15.2473 1.06629 14.4995 0.0526562 14.419C0.121767 15.6397 1.11072 16.7095 2.29219 16.8789L2.27244 18.933C1.93511 17.9722 1.03996 17.2243 0.0263281 17.1438C0.0954393 18.3645 1.08439 19.4344 2.26586 19.6037L2.24611 21.6578C1.90879 20.697 1.01363 19.9491 0 19.8686C0.0691112 21.0894 1.05806 22.1592 2.23953 22.3285L2.21814 24.5L2.50939 24.5034L2.53079 22.3319C3.71555 22.186 4.72424 21.1363 4.81639 19.9173C3.80276 19.9776 2.8928 20.7087 2.53572 21.6612L2.55547 19.6071C3.74023 19.4612 4.74893 18.4115 4.84108 17.1924C3.82744 17.2528 2.91748 17.9839 2.56041 18.9363L2.58015 16.8822C3.76492 16.7363 4.77361 15.6867 4.86576 14.4676C3.85213 14.528 2.94216 15.2591 2.58509 16.2115L2.60483 14.1574C3.7896 14.0115 4.79829 12.9618 4.89044 11.7428C3.88339 11.8015 2.97343 12.5326 2.61635 13.4867Z" fill="url(#paint3_linear_2_627)"/>
<path d="M28.6844 14.7711L28.2928 14.8147C26.9682 14.2547 23.348 12.9098 20.0356 13.3592V24.3458C20.0356 24.3458 23.0732 23.0244 27.7991 24.2384L28.8177 15.0478L28.6844 14.7711Z" fill="url(#paint4_linear_2_627)"/>
<path d="M20.0356 13.0809V24.0674C20.0356 24.0674 23.0272 22.7461 27.6823 23.9601L28.6861 14.7694C28.6844 14.7711 24.1198 12.5175 20.0356 13.0809Z" fill="url(#paint5_linear_2_627)"/>
<path d="M20.0356 13.0809V24.0674C20.0356 24.0674 22.8116 22.4728 27.1343 23.2625L28.0657 13.9797C28.0641 13.9797 23.8269 12.1435 20.0356 13.0809Z" fill="url(#paint6_linear_2_627)"/>
<path d="M20.0356 13.0809V24.0674C20.0356 24.0674 22.6059 22.2128 26.6045 22.6002L27.4667 13.2318C27.4651 13.2318 23.5439 11.7914 20.0356 13.0809Z" fill="url(#paint7_linear_2_627)"/>
<path d="M20.0356 13.0809V24.0674C20.0356 24.0674 22.3986 21.9429 26.0763 21.9093L26.8694 12.4504C26.8694 12.4504 23.2625 11.4225 20.0356 13.0809Z" fill="url(#paint8_linear_2_627)"/>
<path d="M20.4536 20.6383V20.9787C21.1892 20.4639 23.1243 19.3203 25.8097 19.3203C25.8311 19.3203 25.8525 19.3203 25.8739 19.322L25.8969 19.0386C25.8673 19.0386 25.8377 19.0369 25.8081 19.0369C23.2148 19.0369 21.3109 20.0665 20.4536 20.6383Z" fill="#F8EBCF"/>
<path d="M20.4536 19.1292V19.4645C21.1595 18.9967 22.9597 17.999 25.4576 18.0007C25.6287 18.0007 25.8048 18.0074 25.9842 18.0174L26.0072 17.7341C25.8212 17.724 25.637 17.7156 25.4576 17.7156C23.042 17.7156 21.2714 18.6144 20.4536 19.1292Z" fill="#F8EBCF"/>
<path d="M20.4536 22.4929C21.1809 21.9546 23.1012 20.754 25.7637 20.6417L25.7867 20.3566C23.2065 20.4572 21.3093 21.5455 20.4536 22.1458V22.4929Z" fill="#F8EBCF"/>
<path d="M24.4176 13.6761C22.5335 13.6761 21.1464 14.2412 20.452 14.6018V14.9237C21.0592 14.59 22.4595 13.9612 24.4176 13.9612C24.9195 13.9612 25.4609 14.0031 26.3067 14.154L26.3297 13.8707C25.4823 13.7181 24.931 13.6761 24.4176 13.6761Z" fill="#F8EBCF"/>
<path d="M24.7615 15.0344C22.7014 15.0344 21.1892 15.7017 20.4536 16.1109V16.4362C21.0937 16.0589 22.6257 15.3178 24.7615 15.3194C25.1647 15.3194 25.5909 15.3463 26.1997 15.4284L26.2228 15.145C25.609 15.0629 25.1729 15.0344 24.7615 15.0344Z" fill="#F8EBCF"/>
<path d="M25.1071 16.3825C22.8692 16.3825 21.2303 17.1606 20.4536 17.6217V17.952C21.1283 17.5312 22.7919 16.6676 25.1071 16.6676C25.4049 16.6676 25.7159 16.6827 26.0911 16.7246L26.1141 16.4412C25.7324 16.3976 25.4132 16.3825 25.1071 16.3825Z" fill="#F8EBCF"/>
<path d="M20.0356 24.0674C20.5688 23.7756 21.1447 23.5677 21.7272 23.4C22.3114 23.2357 22.9103 23.1234 23.5142 23.0563C23.6656 23.0395 23.817 23.0311 23.9684 23.0177L24.1955 22.9993L24.4226 22.9926L24.8784 22.9825L25.3342 22.9976C25.6386 22.9993 25.9397 23.0429 26.2425 23.0663C26.5453 23.0999 26.8447 23.1535 27.1459 23.1955L27.0685 23.2558C27.2166 21.7081 27.3845 20.1621 27.5424 18.6161L27.7958 16.297L28.0657 13.9797L27.8699 16.3037L27.6576 18.6261C27.5046 20.1738 27.3631 21.7215 27.2002 23.2676L27.1936 23.338L27.1228 23.3279C26.825 23.2843 26.5288 23.229 26.2293 23.1955C25.9298 23.1703 25.6304 23.1267 25.3292 23.1217L24.8784 23.1032L24.4275 23.1083L24.2021 23.1099L23.9766 23.1234C23.8269 23.1334 23.6755 23.1384 23.5258 23.1535C22.9252 23.2089 22.3295 23.3128 21.7437 23.457C21.1562 23.6063 20.577 23.7941 20.0356 24.0674Z" fill="url(#paint9_linear_2_627)"/>
<path d="M20.0356 24.0674C20.5079 23.7388 21.0229 23.4822 21.5528 23.2609C22.0827 23.0429 22.6323 22.8685 23.1917 22.7461C23.7512 22.627 24.3189 22.5298 24.8932 22.5063C25.1795 22.4811 25.4658 22.4895 25.7521 22.4878C26.0384 22.4895 26.3248 22.518 26.6111 22.5331L26.5387 22.5935C26.6736 21.0307 26.8316 19.4712 26.9764 17.9101L27.2133 15.5693L27.4667 13.2301L27.289 15.576L27.0949 17.9202C26.9533 19.4813 26.8234 21.0441 26.6703 22.6052L26.6637 22.6689L26.5979 22.6656C26.3149 22.6505 26.0319 22.6203 25.7488 22.6153C25.4658 22.617 25.1811 22.6052 24.8981 22.6287C24.3304 22.6505 23.7676 22.731 23.2098 22.84C22.652 22.949 22.1073 23.1183 21.5725 23.3145C21.0394 23.5174 20.5178 23.7555 20.0356 24.0674Z" fill="url(#paint10_linear_2_627)"/>
<path d="M20.0356 24.0674C20.4487 23.7069 20.9045 23.4 21.38 23.1284C21.8539 22.8551 22.3525 22.6253 22.8676 22.4409C23.381 22.2564 23.9075 22.0988 24.4472 22.0066C24.9837 21.8993 25.5316 21.8641 26.0779 21.8439L26.0138 21.9043C26.1372 20.3264 26.2803 18.7519 26.4153 17.1757L26.6341 14.813L26.8694 12.4521L26.7082 14.8197L26.5321 17.1857C26.4037 18.7619 26.2836 20.3398 26.1421 21.916L26.1372 21.9747L26.0779 21.9764C25.5399 21.9932 24.9985 22.025 24.467 22.1273C23.9338 22.2162 23.4089 22.3554 22.8972 22.5298C22.3838 22.7008 21.8868 22.9272 21.4063 23.1787C20.9259 23.4319 20.4602 23.722 20.0356 24.0674Z" fill="url(#paint11_linear_2_627)"/>
<path d="M11.3852 14.7711L11.7785 14.8147C13.1031 14.2547 16.7233 12.9098 20.0357 13.3592V24.3458C20.0357 24.3458 16.9981 23.0244 12.2722 24.2384L11.2536 15.0478L11.3852 14.7711Z" fill="url(#paint12_linear_2_627)"/>
<path d="M20.0357 13.0809V24.0674C20.0357 24.0674 17.0441 22.7461 12.389 23.9601L11.3853 14.7694C11.3853 14.7711 15.9499 12.5175 20.0357 13.0809Z" fill="url(#paint13_linear_2_627)"/>
<path d="M20.0356 13.0809V24.0674C20.0356 24.0674 17.2597 22.4728 12.9369 23.2625L12.0056 13.9797C12.0056 13.9797 16.2428 12.1435 20.0356 13.0809Z" fill="url(#paint14_linear_2_627)"/>
<path d="M20.0357 13.0809V24.0674C20.0357 24.0674 17.4654 22.2128 13.4668 22.6002L12.6046 13.2318C12.6046 13.2318 16.5258 11.7914 20.0357 13.0809Z" fill="url(#paint15_linear_2_627)"/>
<path d="M20.0357 13.0809V24.0674C20.0357 24.0674 17.6727 21.9429 13.995 21.9093L13.2019 12.4504C13.2019 12.4504 16.8072 11.4225 20.0357 13.0809Z" fill="url(#paint16_linear_2_627)"/>
<path d="M19.6177 20.6383V20.9787C18.8822 20.4639 16.9471 19.3203 14.2616 19.3203C14.2402 19.3203 14.2188 19.3203 14.1974 19.322L14.1744 19.0386C14.204 19.0386 14.2336 19.0369 14.2632 19.0369C16.8549 19.0369 18.7588 20.0665 19.6177 20.6383Z" fill="#F8EBCF"/>
<path d="M19.6177 19.1292V19.4645C18.9118 18.9967 17.1116 17.999 14.6137 18.0007C14.4426 18.0007 14.2665 18.0074 14.0872 18.0174L14.0641 17.7341C14.2501 17.724 14.4344 17.7156 14.6137 17.7156C17.0293 17.7156 18.7999 18.6144 19.6177 19.1292Z" fill="#F8EBCF"/>
<path d="M19.6177 22.4929C18.8904 21.9546 16.9701 20.754 14.3076 20.6417L14.2846 20.3566C16.8648 20.4572 18.762 21.5455 19.6177 22.1458V22.4929Z" fill="#F8EBCF"/>
<path d="M15.652 13.6761C17.5361 13.6761 18.9233 14.2412 19.6177 14.6018V14.9237C19.0105 14.59 17.6102 13.9612 15.652 13.9612C15.1502 13.9612 14.6088 14.0031 13.763 14.154L13.74 13.8707C14.5874 13.7181 15.1386 13.6761 15.652 13.6761Z" fill="#F8EBCF"/>
<path d="M15.3098 15.0344C17.3699 15.0344 18.8822 15.7017 19.6177 16.1109V16.4362C18.9776 16.0589 17.4456 15.3178 15.3098 15.3194C14.9066 15.3194 14.4804 15.3463 13.87 15.4284L13.8469 15.145C14.4623 15.0629 14.8968 15.0344 15.3098 15.0344Z" fill="#F8EBCF"/>
<path d="M14.9626 16.3825C17.2004 16.3825 18.8394 17.1606 19.616 17.6217V17.952C18.9414 17.5312 17.2778 16.6676 14.9626 16.6676C14.6647 16.6676 14.3537 16.6827 13.9785 16.7246L13.9555 16.4412C14.3373 16.3976 14.6565 16.3825 14.9626 16.3825Z" fill="#F8EBCF"/>
<path d="M20.0356 24.0674C19.4926 23.7941 18.9134 23.6063 18.3293 23.4587C17.7435 23.3145 17.1478 23.2089 16.5472 23.1552C16.3974 23.1401 16.2461 23.1351 16.0963 23.125L15.8709 23.1116L15.6454 23.1099L15.1946 23.1049L14.7437 23.1234C14.4426 23.1267 14.1431 23.172 13.8436 23.1971C13.5441 23.2307 13.2479 23.286 12.9501 23.3296L12.8793 23.3397L12.8728 23.2692C12.7099 21.7232 12.5683 20.1755 12.4153 18.6278L12.203 16.3054L12.0072 13.9813L12.2771 16.2987L12.5305 18.6177C12.6885 20.1638 12.8563 21.7098 13.0044 23.2575L12.9271 23.1971C13.2282 23.1552 13.5277 23.1016 13.8305 23.068C14.1332 23.0445 14.4344 23.0026 14.7388 22.9993L15.1946 22.9842L15.6504 22.9942L15.8775 23.0009L16.1045 23.0194C16.2559 23.0328 16.4073 23.0412 16.5587 23.058C17.1626 23.1267 17.7616 23.2374 18.3457 23.4017C18.9266 23.5677 19.5025 23.7756 20.0356 24.0674Z" fill="url(#paint17_linear_2_627)"/>
<path d="M20.0357 24.0674C19.5535 23.7555 19.0319 23.5174 18.4988 23.3162C17.964 23.12 17.4193 22.9506 16.8615 22.8417C16.3036 22.7343 15.7409 22.6522 15.1732 22.6304C14.8902 22.6069 14.6071 22.6186 14.3225 22.617C14.0394 22.6203 13.7564 22.6505 13.4734 22.6673L13.4076 22.6706L13.401 22.6069C13.2479 21.0458 13.118 19.483 12.9764 17.9219L12.7839 15.5777L12.6046 13.2318L12.858 15.571L13.0949 17.9118C13.2414 19.4729 13.3993 21.0324 13.5326 22.5952L13.4602 22.5348C13.7465 22.5214 14.0329 22.4912 14.3192 22.4895C14.6055 22.4929 14.8935 22.4828 15.1781 22.508C15.7508 22.5314 16.3185 22.6287 16.8796 22.7478C17.439 22.8702 17.9886 23.0445 18.5185 23.2625C19.0483 23.4822 19.5634 23.7404 20.0357 24.0674Z" fill="url(#paint18_linear_2_627)"/>
<path d="M20.0357 24.0674C19.6111 23.722 19.1454 23.4319 18.6649 23.1787C18.1828 22.9272 17.6875 22.7025 17.1741 22.5298C16.6624 22.3537 16.1375 22.2162 15.6043 22.1273C15.0728 22.025 14.5331 21.9932 13.9934 21.9764L13.9341 21.9747L13.9292 21.916C13.7877 20.3398 13.6675 18.7619 13.5392 17.1857L13.3615 14.8181L13.2002 12.4504L13.4355 14.8114L13.6544 17.174C13.7893 18.7502 13.9341 20.3264 14.0559 21.9026L13.9917 21.8423C14.538 21.8624 15.0843 21.8976 15.6224 22.0049C16.1621 22.0955 16.6887 22.2531 17.2021 22.4392C17.7155 22.6253 18.2157 22.8551 18.6896 23.1267C19.1652 23.4 19.6226 23.7069 20.0357 24.0674Z" fill="url(#paint19_linear_2_627)"/>
<path d="M28.9296 7.16841L19.9419 1.88978L10.987 7.16841H10.0705V7.70835L19.9518 13.5101L29.8215 7.69325V7.16841H28.9296Z" fill="url(#paint20_linear_2_627)"/>
<path d="M19.9517 13.5101L14.3817 10.2387L14.3834 12.4688C14.3834 13.3089 14.9264 14.149 16.0124 14.7879C18.1812 16.0623 21.7305 16.0589 23.8977 14.7812C24.439 14.4609 24.8455 14.0903 25.1153 13.6963C25.3869 13.3005 25.5218 12.8797 25.5218 12.4605L25.5201 10.2286L19.9517 13.5101Z" fill="url(#paint21_linear_2_627)"/>
<path d="M19.9419 1.36661L10.0705 7.1835L19.9518 12.9853L29.8215 7.16841L19.9419 1.36661Z" fill="url(#paint22_linear_2_627)"/>
<path d="M25.5185 11.01V10.2303L19.9517 13.5101L14.3817 10.2387V11.0201L19.9517 14.2915L25.5185 11.01Z" fill="#DCE8EF"/>
<path d="M20.8749 7.17512C20.8749 7.48533 20.4586 7.73518 19.9452 7.73518C19.4318 7.73518 19.0155 7.48365 19.0155 7.17512C19.0155 6.86491 19.4318 6.61506 19.9452 6.61506C20.4602 6.61506 20.8749 6.86658 20.8749 7.17512Z" fill="url(#paint23_linear_2_627)"/>
<path d="M24.9475 15.1719C24.8389 15.1719 24.7517 15.083 24.7517 14.9723V13.7919C24.7517 13.6812 24.8389 13.5923 24.9475 13.5923C25.0561 13.5923 25.1433 13.6812 25.1433 13.7919V14.9723C25.1433 15.083 25.0561 15.1719 24.9475 15.1719Z" fill="url(#paint24_linear_2_627)"/>
<path d="M24.9475 14.4341C24.8027 14.4341 24.6859 14.315 24.6859 14.1675V13.879C24.6859 13.7315 24.8027 13.6124 24.9475 13.6124C25.0923 13.6124 25.2092 13.7315 25.2092 13.879V14.1675C25.2092 14.315 25.0923 14.4341 24.9475 14.4341Z" fill="url(#paint25_radial_2_627)"/>
<path d="M24.9475 13.9243C24.8751 13.9243 24.8175 13.864 24.8175 13.7919V10.1179L20.0044 7.29082C19.9419 7.25393 19.9205 7.17344 19.9567 7.10972C19.9929 7.046 20.0719 7.0242 20.1344 7.06109L25.0133 9.92678C25.0545 9.95025 25.0792 9.99385 25.0792 10.0425V13.7935C25.0792 13.8656 25.0199 13.9243 24.9475 13.9243Z" fill="url(#paint26_linear_2_627)"/>
<path d="M30.8894 0.107306L31.2119 0.771327L31.931 0.878644C32.0857 0.902119 32.1482 1.09495 32.0363 1.2073L31.5164 1.72376L31.6398 2.45486C31.6661 2.61248 31.5048 2.73153 31.365 2.65775L30.7216 2.31233L30.0782 2.65775C29.94 2.73153 29.7771 2.61248 29.8034 2.45486L29.9268 1.72376L29.4052 1.2073C29.2933 1.09663 29.3542 0.902119 29.5105 0.878644L30.2296 0.771327L30.5521 0.107306C30.6196 -0.0352233 30.8203 -0.0352233 30.8894 0.107306Z" fill="url(#paint27_radial_2_627)"/>
<path d="M25.9019 0.107306L26.2244 0.771327L26.9435 0.878644C27.0982 0.902119 27.1607 1.09495 27.0488 1.2073L26.5288 1.72376L26.6522 2.45486C26.6786 2.61248 26.5173 2.73153 26.3774 2.65775L25.734 2.31233L25.0906 2.65775C24.9524 2.73153 24.7895 2.61248 24.8158 2.45486L24.9393 1.72376L24.4193 1.2073C24.3074 1.09663 24.3683 0.902119 24.5246 0.878644L25.2437 0.771327L25.5662 0.107306C25.632 -0.0352233 25.8328 -0.0352233 25.9019 0.107306Z" fill="url(#paint28_radial_2_627)"/>
<path d="M14.9231 0.107306L15.2456 0.771327L15.9647 0.878644C16.1194 0.902119 16.1819 1.09495 16.07 1.2073L15.55 1.72376L15.6734 2.45486C15.6998 2.61248 15.5385 2.73153 15.3986 2.65775L14.7552 2.31233L14.1119 2.65775C13.9736 2.73153 13.8107 2.61248 13.8371 2.45486L13.9605 1.72376L13.4388 1.2073C13.3269 1.09663 13.3878 0.902119 13.5442 0.878644L14.2632 0.771327L14.5858 0.107306C14.6532 -0.0352233 14.854 -0.0352233 14.9231 0.107306Z" fill="url(#paint29_radial_2_627)"/>
<path d="M9.93557 0.107306L10.2581 0.771327L10.9772 0.878644C11.1318 0.902119 11.1944 1.09495 11.0825 1.2073L10.5625 1.72376L10.6859 2.45486C10.7122 2.61248 10.551 2.73153 10.4111 2.65775L9.76773 2.31233L9.12433 2.65775C8.98611 2.73153 8.82321 2.61248 8.84953 2.45486L8.97295 1.72376L8.45132 1.2073C8.33943 1.09663 8.40031 0.902119 8.55663 0.878644L9.27572 0.771327L9.59824 0.107306C9.66735 -0.0352233 9.86646 -0.0352233 9.93557 0.107306Z" fill="url(#paint30_radial_2_627)"/>
</g>
<defs>
<linearGradient id="paint0_linear_2_627" x1="13.0647" y1="0.412095" x2="28.7669" y2="27.1012" gradientUnits="userSpaceOnUse">
<stop stop-color="#DA006A"/>
<stop offset="1" stop-color="#733BE4"/>
</linearGradient>
<linearGradient id="paint1_linear_2_627" x1="14.0497" y1="2.85576" x2="27.4654" y2="25.6585" gradientUnits="userSpaceOnUse">
<stop stop-color="#EEBD2F"/>
<stop offset="1" stop-color="#DA5618"/>
</linearGradient>
<linearGradient id="paint2_linear_2_627" x1="33.3347" y1="6.31484" x2="43.2582" y2="25.7912" gradientUnits="userSpaceOnUse">
<stop stop-color="#EEBD2F"/>
<stop offset="1" stop-color="#DA5618"/>
</linearGradient>
<linearGradient id="paint3_linear_2_627" x1="-1.63608" y1="6.31482" x2="8.28744" y2="25.7912" gradientUnits="userSpaceOnUse">
<stop stop-color="#EEBD2F"/>
<stop offset="1" stop-color="#DA5618"/>
</linearGradient>
<linearGradient id="paint4_linear_2_627" x1="28.6237" y1="21.1234" x2="21.053" y2="18.447" gradientUnits="userSpaceOnUse">
<stop stop-color="#5899FF"/>
<stop offset="1" stop-color="#4F39EE"/>
</linearGradient>
<linearGradient id="paint5_linear_2_627" x1="29.6055" y1="20.44" x2="26.8903" y2="20.0217" gradientUnits="userSpaceOnUse">
<stop stop-color="#5899FF"/>
<stop offset="1" stop-color="#4F39EE"/>
</linearGradient>
<linearGradient id="paint6_linear_2_627" x1="28.9463" y1="19.5382" x2="26.4414" y2="19.174" gradientUnits="userSpaceOnUse">
<stop stop-color="#F1CC60"/>
<stop offset="0.3099" stop-color="#F5E2AA"/>
<stop offset="1" stop-color="#E59F2F"/>
</linearGradient>
<linearGradient id="paint7_linear_2_627" x1="29.6266" y1="21.1538" x2="22.7909" y2="18.3486" gradientUnits="userSpaceOnUse">
<stop stop-color="#F1CC60"/>
<stop offset="0.3099" stop-color="#F5E2AA"/>
<stop offset="1" stop-color="#E59F2F"/>
</linearGradient>
<linearGradient id="paint8_linear_2_627" x1="20.0353" y1="18.1015" x2="26.8694" y2="18.1015" gradientUnits="userSpaceOnUse">
<stop stop-color="#F1CC60"/>
<stop offset="0.3099" stop-color="#F5E2AA"/>
<stop offset="1" stop-color="#E59F2F"/>
</linearGradient>
<linearGradient id="paint9_linear_2_627" x1="22.8901" y1="16.9766" x2="26.7807" y2="23.5894" gradientUnits="userSpaceOnUse">
<stop stop-color="#F1CC60"/>
<stop offset="0.3099" stop-color="#F5E2AA"/>
<stop offset="1" stop-color="#E59F2F"/>
</linearGradient>
<linearGradient id="paint10_linear_2_627" x1="22.3568" y1="16.19" x2="26.3006" y2="22.8933" gradientUnits="userSpaceOnUse">
<stop stop-color="#F1CC60"/>
<stop offset="0.3099" stop-color="#F5E2AA"/>
<stop offset="1" stop-color="#E59F2F"/>
</linearGradient>
<linearGradient id="paint11_linear_2_627" x1="21.8185" y1="15.3754" x2="25.8167" y2="22.1712" gradientUnits="userSpaceOnUse">
<stop stop-color="#F1CC60"/>
<stop offset="0.3099" stop-color="#F5E2AA"/>
<stop offset="1" stop-color="#E59F2F"/>
</linearGradient>
<linearGradient id="paint12_linear_2_627" x1="11.447" y1="21.1233" x2="19.0176" y2="18.4468" gradientUnits="userSpaceOnUse">
<stop stop-color="#5899FF"/>
<stop offset="1" stop-color="#4F39EE"/>
</linearGradient>
<linearGradient id="paint13_linear_2_627" x1="10.4651" y1="20.44" x2="13.1803" y2="20.0217" gradientUnits="userSpaceOnUse">
<stop stop-color="#5899FF"/>
<stop offset="1" stop-color="#4F39EE"/>
</linearGradient>
<linearGradient id="paint14_linear_2_627" x1="11.1244" y1="19.5381" x2="13.6292" y2="19.174" gradientUnits="userSpaceOnUse">
<stop stop-color="#F1CC60"/>
<stop offset="0.3099" stop-color="#F5E2AA"/>
<stop offset="1" stop-color="#E59F2F"/>
</linearGradient>
<linearGradient id="paint15_linear_2_627" x1="10.4441" y1="21.1538" x2="17.2797" y2="18.3485" gradientUnits="userSpaceOnUse">
<stop stop-color="#F1CC60"/>
<stop offset="0.3099" stop-color="#F5E2AA"/>
<stop offset="1" stop-color="#E59F2F"/>
</linearGradient>
<linearGradient id="paint16_linear_2_627" x1="20.0353" y1="18.1014" x2="13.2012" y2="18.1014" gradientUnits="userSpaceOnUse">
<stop stop-color="#F1CC60"/>
<stop offset="0.3099" stop-color="#F5E2AA"/>
<stop offset="1" stop-color="#E59F2F"/>
</linearGradient>
<linearGradient id="paint17_linear_2_627" x1="17.1805" y1="16.9766" x2="13.2899" y2="23.5894" gradientUnits="userSpaceOnUse">
<stop stop-color="#F1CC60"/>
<stop offset="0.3099" stop-color="#F5E2AA"/>
<stop offset="1" stop-color="#E59F2F"/>
</linearGradient>
<linearGradient id="paint18_linear_2_627" x1="17.7138" y1="16.19" x2="13.77" y2="22.8933" gradientUnits="userSpaceOnUse">
<stop stop-color="#F1CC60"/>
<stop offset="0.3099" stop-color="#F5E2AA"/>
<stop offset="1" stop-color="#E59F2F"/>
</linearGradient>
<linearGradient id="paint19_linear_2_627" x1="18.2521" y1="15.3754" x2="14.2539" y2="22.1712" gradientUnits="userSpaceOnUse">
<stop stop-color="#F1CC60"/>
<stop offset="0.3099" stop-color="#F5E2AA"/>
<stop offset="1" stop-color="#E59F2F"/>
</linearGradient>
<linearGradient id="paint20_linear_2_627" x1="15.4776" y1="2.06657" x2="24.2709" y2="12.2445" gradientUnits="userSpaceOnUse">
<stop stop-color="#5899FF"/>
<stop offset="1" stop-color="#4F39EE"/>
</linearGradient>
<linearGradient id="paint21_linear_2_627" x1="14.3459" y1="12.986" x2="22.1148" y2="12.986" gradientUnits="userSpaceOnUse">
<stop stop-color="#514FF2"/>
<stop offset="0.3046" stop-color="#5899FF"/>
<stop offset="1" stop-color="#4F39EE"/>
</linearGradient>
<linearGradient id="paint22_linear_2_627" x1="16.218" y1="1.88087" x2="29.0405" y2="19.4155" gradientUnits="userSpaceOnUse">
<stop stop-color="#5899FF"/>
<stop offset="1" stop-color="#4F39EE"/>
</linearGradient>
<linearGradient id="paint23_linear_2_627" x1="19.4915" y1="6.52941" x2="21.0571" y2="8.67031" gradientUnits="userSpaceOnUse">
<stop stop-color="#5899FF"/>
<stop offset="1" stop-color="#4F39EE"/>
</linearGradient>
<linearGradient id="paint24_linear_2_627" x1="24.7522" y1="14.382" x2="25.144" y2="14.382" gradientUnits="userSpaceOnUse">
<stop stop-color="#EEBD2F"/>
<stop offset="1" stop-color="#DA5618"/>
</linearGradient>
<radialGradient id="paint25_radial_2_627" cx="0" cy="0" r="1" gradientUnits="userSpaceOnUse" gradientTransform="translate(24.9481 14.0241) scale(0.339269 0.345727)">
<stop stop-color="#E79927"/>
<stop offset="1" stop-color="#DD661C"/>
</radialGradient>
<linearGradient id="paint26_linear_2_627" x1="19.9392" y1="10.4839" x2="25.0787" y2="10.4839" gradientUnits="userSpaceOnUse">
<stop stop-color="#EEBD2F"/>
<stop offset="1" stop-color="#DA5618"/>
</linearGradient>
<radialGradient id="paint27_radial_2_627" cx="0" cy="0" r="1" gradientUnits="userSpaceOnUse" gradientTransform="translate(30.2379 1.09155) scale(1.27589 1.30017)">
<stop stop-color="#E79927"/>
<stop offset="1" stop-color="#DD661C"/>
</radialGradient>
<radialGradient id="paint28_radial_2_627" cx="0" cy="0" r="1" gradientUnits="userSpaceOnUse" gradientTransform="translate(25.2505 1.09155) scale(1.27589 1.30017)">
<stop stop-color="#E79927"/>
<stop offset="1" stop-color="#DD661C"/>
</radialGradient>
<radialGradient id="paint29_radial_2_627" cx="0" cy="0" r="1" gradientUnits="userSpaceOnUse" gradientTransform="translate(14.2718 1.09155) scale(1.27589 1.30017)">
<stop stop-color="#E79927"/>
<stop offset="1" stop-color="#DD661C"/>
</radialGradient>
<radialGradient id="paint30_radial_2_627" cx="0" cy="0" r="1" gradientUnits="userSpaceOnUse" gradientTransform="translate(9.28436 1.09155) scale(1.27589 1.30017)">
<stop stop-color="#E79927"/>
<stop offset="1" stop-color="#DD661C"/>
</radialGradient>
<clipPath id="clip0_2_627">
<rect width="39.8936" height="30" fill="white"/>
</clipPath>
</defs>
</svg>
